:FULLY-SPECIFIED
:FORCE-ALL-JOINTS-BE-3DOF
:DEGREES
1053
root 1.20838 15.1646 32.5441 4.8017 -3.20114 363.245
lfemur 8.36497 0.27633 5.73337
ltibia 0.834293 0 0
lfoot -30.7829 -10.7898 0
ltoes -34.4592 0 0
rfemur -30.7446 -15.7293 -6.13697
rtibia 49.8064 0 0
rfoot -21.9119 5.2893 0
rtoes -41.3247 0 0
lowerback -1.77406 -0.0189871 -0.246925
upperback -0.470291 0.0115432 -5.95341
thorax 0.514541 0.00471425 -6.0293
lowerneck -7.1949 0.728467 6.48145
upperneck 1.54997 0.261777 3.71129
head 1.71302 0.269414 0.0798679
lclavicle 1.01356e-014 -1.8525e-014 0
lhumerus -58.5956 -46.9286 115.464
lradius 55.8652 0 0
lwrist 25.4583 0 0
lhand 37.4419 25.3248 0
lfingers 7.12502 0 0
lthumb 60.2428 38.8472 0
rclavicle 1.01356e-014 -1.8525e-014 0
rhumerus 2.0859 -23.271 0.595768
rradius 27.4651 0 0
rwrist -9.41528 0 0
rhand -30.5265 -41.8595 0
rfingers 7.12502 0 0
rthumb -3.82588 -791.805 0
1054
root 1.21055 15.1647 32.5486 4.8076 -3.20842 363.242
lfemur 8.36103 0.286529 5.72226
ltibia 0.872571 0 0
lfoot -30.811 -10.7886 0
ltoes -34.4541 0 0
rfemur -30.7293 -15.7136 -6.14639
rtibia 49.7957 0 0
rfoot -21.9022 5.30155 0
rtoes -41.2851 0 0
lowerback -1.78827 -0.0187739 -0.25987
upperback -0.4703 0.0125395 -5.95109
thorax 0.522618 0.00531333 -6.01942
lowerneck -7.18809 0.724378 6.48071
upperneck 1.53474 0.25763 3.71429
head 1.70675 0.266792 0.0807447
lclavicle 1.04395e-014 -1.89661e-014 0
lhumerus -58.5864 -46.9244 115.462
lradius 55.8616 0 0
lwrist 25.4671 0 0
lhand 37.4486 25.3311 0
lfingers 7.12502 0 0
lthumb 60.2486 38.8474 0
rclavicle 1.04395e-014 -1.89661e-014 0
rhumerus 2.07111 -23.2601 0.607028
rradius 27.4656 0 0
rwrist -9.40013 0 0
rhand -30.5301 -41.8465 0
rfingers 7.12502 0 0
rthumb -3.82934 -791.792 0
1055
root 1.21268 15.1649 32.5532 4.81416 -3.21725 363.239
lfemur 8.35733 0.298356 5.7104
ltibia 0.910811 0 0
lfoot -30.8391 -10.7882 0
ltoes -34.4482 0 0
rfemur -30.7158 -15.6973 -6.15612
rtibia 49.7858 0 0
rfoot -21.893 5.31377 0
rtoes -41.2452 0 0
lowerback -1.80256 -0.0189393 -0.272156
upperback -0.470545 0.0130065 -5.94868
thorax 0.53043 0.00563544 -6.00983
lowerneck -7.18064 0.720597 6.47938
upperneck 1.51874 0.254044 3.71697
head 1.70012 0.264406 0.0816395
lclavicle 1.07385e-014 -1.94166e-014 0
lhumerus -58.5767 -46.9185 115.46
lradius 55.8572 0 0
lwrist 25.4757 0 0
lhand 37.4553 25.3368 0
lfingers 7.12502 0 0
lthumb 60.2543 38.847 0
rclavicle 1.07385e-014 -1.94166e-014 0
rhumerus 2.05762 -23.2507 0.617775
rradius 27.4667 0 0
rwrist -9.38649 0 0
rhand -30.5346 -41.8359 0
rfingers 7.12502 0 0
rthumb -3.83373 -791.781 0
1056
root 1.21475 15.165 32.5578 4.82142 -3.22768 363.237
lfemur 8.35388 0.311864 5.69775
ltibia 0.948952 0 0
lfoot -30.867 -10.7887 0
ltoes -34.4417 0 0
rfemur -30.7042 -15.6805 -6.16615
rtibia 49.7768 0 0
rfoot -21.8843 5.32593 0
rtoes -41.2051 0 0
lowerback -1.8169 -0.019499 -0.283736
upperback -0.471036 0.012921 -5.94618
thorax 0.537953 0.00566837 -6.00057
lowerneck -7.17253 0.717145 6.47742
upperneck 1.50198 0.251049 3.71934
head 1.69312 0.262268 0.0825518
lclavicle 1.10322e-014 -1.9876e-014 0
lhumerus -58.5666 -46.9106 115.456
lradius 55.8519 0 0
lwrist 25.4842 0 0
lhand 37.462 25.3418 0
lfingers 7.12502 0 0
lthumb 60.26 38.8458 0
rclavicle 1.10322e-014 -1.9876e-014 0
rhumerus 2.04549 -23.2429 0.627973
rradius 27.4683 0 0
rwrist -9.37443 0 0
rhand -30.5402 -41.8278 0
rfingers 7.12502 0 0
rthumb -3.83908 -791.773 0
1057
root 1.21677 15.1652 32.5624 4.82938 -3.23977 363.236
lfemur 8.35071 0.327103 5.68432
ltibia 0.986938 0 0
lfoot -30.8948 -10.7902 0
ltoes -34.4345 0 0
rfemur -30.6946 -15.6631 -6.17649
rtibia 49.7686 0 0
rfoot -21.8762 5.33802 0
rtoes -41.1649 0 0
lowerback -1.83128 -0.0204689 -0.294563
upperback -0.471783 0.01226 -5.9436
thorax 0.545166 0.00539989 -5.99165
lowerneck -7.16375 0.714039 6.47483
upperneck 1.48443 0.248673 3.72135
head 1.68576 0.260392 0.0834811
lclavicle 1.13197e-014 -2.03441e-014 0
lhumerus -58.5561 -46.9009 115.452
lradius 55.8457 0 0
lwrist 25.4926 0 0
lhand 37.4687 25.346 0
lfingers 7.12502 0 0
lthumb 60.2657 38.8439 0
rclavicle 1.13197e-014 -2.03441e-014 0
rhumerus 2.03481 -23.2366 0.637583
rradius 27.4705 0 0
rwrist -9.36405 0 0
rhand -30.5468 -41.8223 0
rfingers 7.12502 0 0
rthumb -3.84543 -791.767 0
1058
root 1.21872 15.1653 32.5671 4.83806 -3.25357 363.236
lfemur 8.34783 0.344125 5.67008
ltibia 1.02471 0 0
lfoot -30.9223 -10.7926 0
ltoes -34.4266 0 0
rfemur -30.6872 -15.6453 -6.18714
rtibia 49.7613 0 0
rfoot -21.8686 5.35001 0
rtoes -41.1246 0 0
lowerback -1.84569 -0.0218649 -0.304591
upperback -0.472795 0.0110001 -5.94092
thorax 0.552045 0.00481776 -5.98311
lowerneck -7.15428 0.711298 6.47158
upperneck 1.4661 0.246945 3.72301
head 1.67802 0.258792 0.0844267
lclavicle 1.16004e-014 -2.08207e-014 0
lhumerus -58.5451 -46.889 115.447
lradius 55.8385 0 0
lwrist 25.5008 0 0
lhand 37.4753 25.3494 0
lfingers 7.12502 0 0
lthumb 60.2714 38.8413 0
rclavicle 1.16004e-014 -2.08207e-014 0
rhumerus 2.02564 -23.2321 0.646567
rradius 27.4734 0 0
rwrist -9.35542 0 0
rhand -30.5544 -41.8195 0
rfingers 7.12502 0 0
rthumb -3.85281 -791.764 0
1059
root 1.22061 15.1654 32.5718 4.84748 -3.26913 363.236
lfemur 8.34525 0.362982 5.65502
ltibia 1.06221 0 0
lfoot -30.9496 -10.7961 0
ltoes -34.418 0 0
rfemur -30.6819 -15.6268 -6.19808
rtibia 49.755 0 0
rfoot -21.8617 5.36188 0
rtoes -41.0842 0 0
lowerback -1.8601 -0.0237026 -0.313775
upperback -0.474082 0.00911834 -5.93816
thorax 0.558567 0.00390978 -5.97497
lowerneck -7.14411 0.708941 6.46763
upperneck 1.44697 0.245896 3.72429
head 1.6699 0.25748 0.0853882
lclavicle 1.18737e-014 -2.13055e-014 0
lhumerus -58.5337 -46.8751 115.442
lradius 55.8304 0 0
lwrist 25.5089 0 0
lhand 37.4819 25.352 0
lfingers 7.12502 0 0
lthumb 60.277 38.8378 0
rclavicle 1.18737e-014 -2.13055e-014 0
rhumerus 2.01808 -23.2293 0.654888
rradius 27.4768 0 0
rwrist -9.34864 0 0
rhand -30.5631 -41.8196 0
rfingers 7.12502 0 0
rthumb -3.86125 -791.764 0
1060
root 1.22243 15.1655 32.5765 4.85767 -3.2865 363.238
lfemur 8.34299 0.383725 5.63912
ltibia 1.09937 0 0
lfoot -30.9765 -10.8005 0
ltoes -34.4086 0 0
rfemur -30.6789 -15.6079 -6.20933
rtibia 49.7497 0 0
rfoot -21.8553 5.37363 0
rtoes -41.0439 0 0
lowerback -1.8745 -0.0259979 -0.322067
upperback -0.475653 0.00659153 -5.93531
thorax 0.564709 0.0026637 -5.96726
lowerneck -7.13322 0.706987 6.46298
upperneck 1.42703 0.245553 3.72518
head 1.6614 0.256471 0.086365
lclavicle 1.2139e-014 -2.17981e-014 0
lhumerus -58.5218 -46.8591 115.435
lradius 55.8212 0 0
lwrist 25.5167 0 0
lhand 37.4885 25.3537 0
lfingers 7.12502 0 0
lthumb 60.2826 38.8336 0
rclavicle 1.2139e-014 -2.17981e-014 0
rhumerus 2.01218 -23.2284 0.662507
rradius 27.4809 0 0
rwrist -9.34377 0 0
rhand -30.573 -41.8227 0
rfingers 7.12502 0 0
rthumb -3.87079 -791.767 0
1061
root 1.22417 15.1656 32.5813 4.86863 -3.30574 363.241
lfemur 8.34107 0.406405 5.62237
ltibia 1.13615 0 0
lfoot -31.0031 -10.8061 0
ltoes -34.3984 0 0
rfemur -30.6783 -15.5884 -6.22087
rtibia 49.7455 0 0
rfoot -21.8497 5.38521 0
rtoes -41.0036 0 0
lowerback -1.88887 -0.0287667 -0.329422
upperback -0.477519 0.00339653 -5.93236
thorax 0.570449 0.00106731 -5.96001
lowerneck -7.12158 0.705455 6.45759
upperneck 1.40628 0.245946 3.72565
head 1.65251 0.255778 0.0873565
lclavicle 1.23956e-014 -2.22984e-014 0
lhumerus -58.5095 -46.8408 115.428
lradius 55.811 0 0
lwrist 25.5244 0 0
lhand 37.4949 25.3545 0
lfingers 7.12502 0 0
lthumb 60.2881 38.8285 0
rclavicle 1.23956e-014 -2.22984e-014 0
rhumerus 2.00802 -23.2294 0.669389
rradius 27.4856 0 0
rwrist -9.34092 0 0
rhand -30.5841 -41.8289 0
rfingers 7.12502 0 0
rthumb -3.88146 -791.773 0
1062
root 1.22583 15.1657 32.586 4.88039 -3.3269 363.244
lfemur 8.3395 0.431074 5.60476
ltibia 1.17247 0 0
lfoot -31.0293 -10.8128 0
ltoes -34.3874 0 0
rfemur -30.6802 -15.5685 -6.23271
rtibia 49.7423 0 0
rfoot -21.8447 5.39663 0
rtoes -40.9634 0 0
lowerback -1.90318 -0.0320247 -0.335793
upperback -0.479689 -0.000489808 -5.92933
thorax 0.575764 -0.000891628 -5.95323
lowerneck -7.1092 0.704362 6.45144
upperneck 1.3847 0.247104 3.7257
head 1.64323 0.255414 0.088362
lclavicle 1.26429e-014 -2.2806e-014 0
lhumerus -58.4967 -46.8202 115.419
lradius 55.7998 0 0
lwrist 25.5318 0 0
lhand 37.5013 25.3543 0
lfingers 7.12502 0 0
lthumb 60.2936 38.8225 0
rclavicle 1.26429e-014 -2.2806e-014 0
rhumerus 2.00568 -23.2323 0.675493
rradius 27.491 0 0
rwrist -9.34016 0 0
rhand -30.5963 -41.8383 0
rfingers 7.12502 0 0
rthumb -3.89329 -791.782 0
1063
root 1.22741 15.1658 32.5907 4.89297 -3.35003 363.249
lfemur 8.3383 0.457783 5.58627
ltibia 1.20829 0 0
lfoot -31.055 -10.8206 0
ltoes -34.3756 0 0
rfemur -30.6847 -15.5479 -6.24485
rtibia 49.7404 0 0
rfoot -21.8405 5.40785 0
rtoes -40.9234 0 0
lowerback -1.91743 -0.0357877 -0.341134
upperback -0.482173 -0.00509063 -5.92621
thorax 0.58063 -0.00322533 -5.94697
lowerneck -7.09604 0.703729 6.44451
upperneck 1.3623 0.249056 3.72529
head 1.63354 0.255394 0.0893812
lclavicle 1.28801e-014 -2.33207e-014 0
lhumerus -58.4834 -46.7972 115.41
lradius 55.7874 0 0
lwrist 25.539 0 0
lhand 37.5076 25.3532 0
lfingers 7.12502 0 0
lthumb 60.299 38.8157 0
rclavicle 1.28801e-014 -2.33207e-014 0
rhumerus 2.00524 -23.2374 0.680784
rradius 27.4971 0 0
rwrist -9.34158 0 0
rhand -30.6098 -41.851 0
rfingers 7.12502 0 0
rthumb -3.90631 -791.795 0
